<svg width="85" height="43" viewBox="0 0 85 43" fill="none" xmlns="http://www.w3.org/2000/svg">
<path d="M84.0607 13.0607C84.6465 12.4749 84.6465 11.5251 84.0607 10.9393L74.5147 1.3934C73.9289 0.807611 72.9792 0.807611 72.3934 1.3934C71.8076 1.97919 71.8076 2.92893 72.3934 3.51472L80.8787 12L72.3934 20.4853C71.8076 21.0711 71.8076 22.0208 72.3934 22.6066C72.9792 23.1924 73.9289 23.1924 74.5147 22.6066L84.0607 13.0607ZM29 13.5H83V10.5H29V13.5Z" fill="#FFF1D0"/>
<path d="M0.939335 29.9393C0.35355 30.5251 0.35355 31.4749 0.939335 32.0607L10.4853 41.6066C11.0711 42.1924 12.0208 42.1924 12.6066 41.6066C13.1924 41.0208 13.1924 40.0711 12.6066 39.4853L4.12132 31L12.6066 22.5147C13.1924 21.9289 13.1924 20.9792 12.6066 20.3934C12.0208 19.8076 11.0711 19.8076 10.4853 20.3934L0.939335 29.9393ZM56 29.5L2 29.5V32.5L56 32.5V29.5Z" fill="#FFF1D0"/>
</svg>
