<svg width="30" height="40" viewBox="0 0 30 40" fill="none" xmlns="http://www.w3.org/2000/svg">
<circle cx="15" cy="25" r="15" fill="#DD1C1A"/>
<path d="M19.73 29.56C19.73 30.544 19.37 31.39 18.65 32.098C17.93 32.794 16.892 33.226 15.536 33.394V35.41H13.736V33.448C12.848 33.4 12.002 33.244 11.198 32.98C10.394 32.716 9.746 32.392 9.254 32.008L10.244 29.812C10.7 30.148 11.234 30.43 11.846 30.658C12.458 30.886 13.088 31.03 13.736 31.09V28.084C12.884 27.88 12.164 27.652 11.576 27.4C10.988 27.148 10.496 26.782 10.1 26.302C9.704 25.81 9.506 25.162 9.506 24.358C9.506 23.362 9.866 22.51 10.586 21.802C11.318 21.082 12.368 20.644 13.736 20.488V18.49H15.536V20.452C17.012 20.572 18.23 20.938 19.19 21.55L18.29 23.764C17.39 23.248 16.472 22.936 15.536 22.828V25.888C16.376 26.08 17.084 26.302 17.66 26.554C18.248 26.794 18.74 27.16 19.136 27.652C19.532 28.132 19.73 28.768 19.73 29.56ZM12.404 24.214C12.404 24.514 12.518 24.76 12.746 24.952C12.974 25.144 13.304 25.306 13.736 25.438V22.882C13.28 22.99 12.944 23.164 12.728 23.404C12.512 23.632 12.404 23.902 12.404 24.214ZM15.536 31.018C15.968 30.922 16.292 30.766 16.508 30.55C16.724 30.334 16.832 30.076 16.832 29.776C16.832 29.476 16.718 29.23 16.49 29.038C16.274 28.846 15.956 28.678 15.536 28.534V31.018Z" fill="#1C2581"/>
<circle cx="15" cy="15" r="14.25" fill="#1C2581" stroke="#DD1C1A" stroke-width="1.5"/>
<path d="M16.252 18.732C17.512 18.732 18.574 18.234 19.438 17.238L21.292 18.966C20.692 19.698 19.948 20.256 19.06 20.64C18.184 21.024 17.2 21.216 16.108 21.216C15.064 21.216 14.092 21.03 13.192 20.658C12.304 20.286 11.548 19.758 10.924 19.074C10.3 18.39 9.85 17.598 9.574 16.698H7.54V15.186H9.304C9.292 15.078 9.286 14.916 9.286 14.7C9.286 14.484 9.292 14.322 9.304 14.214H7.54V12.702H9.574C9.85 11.802 10.3 11.01 10.924 10.326C11.548 9.642 12.304 9.114 13.192 8.742C14.092 8.37 15.064 8.184 16.108 8.184C17.2 8.184 18.184 8.376 19.06 8.76C19.948 9.144 20.692 9.696 21.292 10.416L19.438 12.144C18.562 11.16 17.5 10.668 16.252 10.668C15.46 10.668 14.752 10.848 14.128 11.208C13.504 11.568 13.024 12.066 12.688 12.702H17.242V14.214H12.238C12.226 14.322 12.22 14.484 12.22 14.7C12.22 14.916 12.226 15.078 12.238 15.186H17.242V16.698H12.688C13.024 17.334 13.504 17.832 14.128 18.192C14.752 18.552 15.46 18.732 16.252 18.732Z" fill="#DD1C1A"/>
</svg>
